<?xml version="1.0" encoding="UTF-8"?>
<svg id="svg" xmlns="http://www.w3.org/2000/svg" width="144.95" height="74.05" viewBox="0 0 144.95 74.05">
  <defs>
    <style>
      .cls-1 {
        stroke: #078649;
        stroke-width: .25px;
      }

      .cls-1, .cls-2 {
        fill: #078649;
      }

      .cls-1, .cls-3 {
        stroke-miterlimit: 10;
      }

      .cls-4 {
        isolation: isolate;
      }

      .cls-3 {
        stroke: #000;
        stroke-width: .7px;
      }
    </style>
  </defs>
  <g id="Logo">
    <path class="cls-2" d="M1.75,74.05c-.44,0-.87-.16-1.21-.49-.7-.67-.73-1.78-.06-2.48L67.84.54c.32-.34.77-.53,1.23-.54.47-.02.92.17,1.25.49l18.57,17.94,6.51-5.04c.69-.55,1.69-.61,2.46-.13.77.48,1.15,1.4.96,2.28l-1.29,6.33,20.18-16.15c.68-.57,1.68-.64,2.46-.16.79.48,1.18,1.4.99,2.3l-7.81,33.58,31.03,29.5c.7.67.73,1.78.06,2.48-.67.7-1.78.73-2.48.06l-31.6-30.04c-.55-.55-.77-1.29-.62-2.01l7.1-30.54-20.06,16.05c-.72.57-1.68.63-2.46.16-.78-.47-1.17-1.36-1-2.25l1.32-6.46-4.54,3.52c-.76.66-2.04.62-2.83-.17l-18.12-17.5L3.02,73.51c-.35.36-.81.54-1.27.54ZM89.71,19.21l.03.03s-.02-.02-.03-.03ZM88.01,19.11s-.08.06-.12.09l.12-.09ZM97.57,16.14l-.03.02s.02-.01.03-.02ZM95.39,14.81s0,.03,0,.04v-.04ZM119.93,8.44l-.03.03s.02-.02.03-.03Z"/>
    <g class="cls-4">
      <path class="cls-3" d="M54.73,37.06c.23.33.52.63.86.88.34.25.73.38,1.18.38.51,0,.92-.15,1.22-.46.3-.3.46-.74.46-1.31s-.14-.97-.42-1.24-.7-.54-1.25-.8l-.43-.23c-.6-.27-1.1-.63-1.5-1.09-.4-.46-.6-1.06-.6-1.82s.23-1.37.69-1.83c.46-.45,1.04-.68,1.74-.68.54,0,.98.1,1.34.31.36.21.68.5.98.89l-.49.72c-.21-.25-.46-.48-.75-.69s-.64-.31-1.06-.31c-.45,0-.83.14-1.13.41-.3.28-.45.63-.45,1.06,0,.53.17.94.51,1.24.34.3.69.53,1.04.71l.73.39c.76.36,1.27.75,1.54,1.17.27.42.4.96.4,1.64,0,.9-.25,1.6-.74,2.09-.5.49-1.11.74-1.83.74-.29,0-.56-.03-.81-.08-.25-.05-.48-.14-.69-.25-.22-.11-.42-.26-.61-.44-.19-.18-.38-.39-.56-.64l.64-.77Z"/>
      <path class="cls-3" d="M65.35,30.01h-3.31v3.39h2.64v.83h-2.64v3.97h3.46v.88h-4.3v-9.95h4.15v.88Z"/>
      <path class="cls-3" d="M68.3,34.9v4.18h-.84v-9.95h2.11c.8,0,1.41.25,1.85.75.43.5.65,1.21.65,2.13,0,.77-.25,1.44-.76,2.01-.5.58-1.23.87-2.17.87h-.84ZM68.3,34.07h.82c.63,0,1.14-.19,1.51-.58.37-.38.56-.9.56-1.55,0-.69-.15-1.19-.45-1.51s-.79-.48-1.48-.48h-.96v4.11Z"/>
      <path class="cls-3" d="M74.81,34.9v4.18h-.84v-9.95h2.11c.8,0,1.41.25,1.85.75.43.5.65,1.21.65,2.13,0,.77-.25,1.44-.76,2.01-.5.58-1.23.87-2.17.87h-.84ZM74.81,34.07h.82c.63,0,1.14-.19,1.51-.58.37-.38.56-.9.56-1.55,0-.69-.15-1.19-.45-1.51s-.79-.48-1.48-.48h-.96v4.11Z"/>
      <path class="cls-3" d="M84.62,30.01h-3.31v3.39h2.64v.83h-2.64v3.97h3.46v.88h-4.3v-9.95h4.15v.88Z"/>
      <path class="cls-3" d="M91.07,39.08h-4.34v-9.95h.84v9.07h3.5v.88Z"/>
      <path class="cls-3" d="M44.67,49.22c.22.31.48.58.8.81s.68.35,1.08.35c.47,0,.85-.14,1.13-.42.28-.28.42-.69.42-1.21s-.13-.9-.39-1.15-.64-.5-1.16-.74l-.39-.21c-.55-.25-1.01-.59-1.38-1.01s-.55-.98-.55-1.68.21-1.27.64-1.68.96-.62,1.6-.62c.49,0,.91.09,1.24.28.33.19.63.46.91.82l-.45.66c-.2-.23-.43-.45-.69-.64-.26-.19-.59-.28-.98-.28-.42,0-.77.13-1.05.38s-.42.58-.42.98c0,.49.16.87.47,1.15.31.28.63.49.96.65l.68.36c.7.34,1.17.7,1.42,1.08s.37.89.37,1.51c0,.83-.23,1.47-.69,1.93s-1.02.68-1.69.68c-.27,0-.52-.02-.75-.07s-.44-.13-.64-.23c-.2-.11-.39-.24-.57-.4s-.35-.36-.52-.59l.6-.71Z"/>
      <path class="cls-3" d="M53.72,51.23c-1.01,0-1.79-.45-2.34-1.35s-.82-2.09-.82-3.57c0-1.34.31-2.45.93-3.33.62-.88,1.38-1.32,2.29-1.32.99,0,1.76.44,2.3,1.32.54.88.82,2.05.82,3.5,0,1.35-.3,2.48-.9,3.38-.6.91-1.36,1.36-2.27,1.36ZM53.76,50.38c.59,0,1.13-.35,1.6-1.05s.71-1.74.71-3.11c0-.88-.18-1.71-.55-2.51s-.94-1.2-1.72-1.2-1.34.36-1.77,1.08-.64,1.63-.64,2.74c0,1.3.23,2.31.68,3.01.45.7,1.02,1.05,1.7,1.05Z"/>
      <path class="cls-3" d="M62.89,51.08h-4.01v-9.18h.78v8.37h3.23v.81Z"/>
      <path class="cls-3" d="M65.2,41.9v5.58c0,1.23.16,2.02.49,2.36s.79.51,1.38.51c.64,0,1.13-.17,1.46-.51.33-.34.49-1.11.49-2.33v-5.61h.77v5.55c0,1.52-.24,2.53-.71,3.03-.47.5-1.16.75-2.06.75s-1.54-.25-1.97-.76-.64-1.51-.64-3v-5.57h.78Z"/>
      <path class="cls-3" d="M76.56,42.74h-2.23v8.34h-.78v-8.34h-2.22v-.84h5.23v.84Z"/>
      <path class="cls-3" d="M78.09,51.08v-9.18h.78v9.18h-.78Z"/>
      <path class="cls-3" d="M84.02,51.23c-1.01,0-1.79-.45-2.34-1.35s-.82-2.09-.82-3.57c0-1.34.31-2.45.93-3.33.62-.88,1.38-1.32,2.29-1.32.99,0,1.76.44,2.3,1.32.54.88.82,2.05.82,3.5,0,1.35-.3,2.48-.9,3.38-.6.91-1.36,1.36-2.27,1.36ZM84.06,50.38c.59,0,1.13-.35,1.6-1.05s.71-1.74.71-3.11c0-.88-.18-1.71-.55-2.51s-.94-1.2-1.72-1.2-1.34.36-1.77,1.08-.64,1.63-.64,2.74c0,1.3.23,2.31.68,3.01.45.7,1.02,1.05,1.7,1.05Z"/>
      <path class="cls-3" d="M89.95,43.54v7.54h-.77v-9.18s.77,0,.77,0l3.57,7.58v-7.58h.78v9.18h-.75l-3.6-7.54Z"/>
      <path class="cls-3" d="M96.62,49.22c.22.31.48.58.8.81s.68.35,1.08.35c.47,0,.85-.14,1.13-.42.28-.28.42-.69.42-1.21s-.13-.9-.39-1.15-.64-.5-1.16-.74l-.39-.21c-.55-.25-1.01-.59-1.38-1.01s-.55-.98-.55-1.68.21-1.27.64-1.68.96-.62,1.6-.62c.49,0,.91.09,1.24.28.33.19.63.46.91.82l-.45.66c-.2-.23-.43-.45-.69-.64-.26-.19-.59-.28-.98-.28-.42,0-.77.13-1.05.38s-.42.58-.42.98c0,.49.16.87.47,1.15.31.28.63.49.96.65l.68.36c.7.34,1.17.7,1.42,1.08s.37.89.37,1.51c0,.83-.23,1.47-.69,1.93s-1.02.68-1.69.68c-.27,0-.52-.02-.75-.07s-.44-.13-.64-.23c-.2-.11-.39-.24-.57-.4s-.35-.36-.52-.59l.6-.71Z"/>
    </g>
    <g class="cls-4">
      <path class="cls-1" d="M42.29,63.66h-1.03v-3.05h-2.01v3.05h-1.03v-7.11h1.03v2.88h2.01v-2.88h1.03v7.11Z"/>
      <path class="cls-1" d="M45.64,63.66c-.05-.13-.08-.29-.1-.47-.24.38-.55.57-.94.57-.36,0-.67-.15-.91-.45-.24-.3-.36-.68-.36-1.13,0-.56.15-.99.44-1.29.29-.3.71-.45,1.27-.45h.46v-.3c0-.24-.04-.44-.13-.59-.09-.15-.23-.22-.42-.22-.17,0-.3.06-.39.17-.1.11-.14.27-.14.47h-.99c0-.31.07-.59.2-.85s.32-.46.56-.61c.24-.15.52-.22.82-.22.46,0,.82.16,1.09.49.27.33.4.79.4,1.38v2.29c0,.5.05.88.15,1.14v.08h-1ZM44.81,62.68c.15,0,.28-.05.41-.14.12-.09.21-.22.27-.37v-.91h-.37c-.5,0-.76.24-.79.73v.08c0,.18.04.32.13.43s.21.17.36.17Z"/>
      <path class="cls-1" d="M49.84,63.12c-.25.42-.58.63-1.02.63-.4,0-.7-.16-.91-.49-.21-.33-.32-.8-.32-1.43v-3.46h.99v3.42c0,.55.18.83.53.83s.57-.17.69-.5v-3.74h1v5.28h-.93l-.03-.54Z"/>
      <path class="cls-1" d="M53.92,62.2c0-.17-.06-.31-.18-.41-.12-.1-.31-.19-.58-.27-.88-.26-1.33-.8-1.33-1.6,0-.47.14-.86.41-1.17.27-.31.63-.47,1.07-.47.47,0,.85.16,1.13.47s.42.73.42,1.23h-.99c0-.2-.05-.37-.14-.5-.09-.13-.24-.2-.43-.2-.17,0-.3.05-.39.16-.09.11-.14.24-.14.41,0,.16.05.28.16.38.1.1.28.18.53.25.25.07.46.15.63.24.53.27.79.75.79,1.42,0,.48-.15.87-.44,1.17-.29.3-.67.45-1.13.45-.31,0-.59-.08-.83-.24-.24-.16-.43-.38-.57-.65-.14-.27-.21-.57-.21-.89h.94c0,.25.07.44.2.58.12.13.28.2.49.2.19,0,.33-.05.43-.15.1-.1.15-.24.15-.4Z"/>
      <path class="cls-1" d="M56.81,58.38l.03.59c.26-.46.62-.69,1.07-.69.48,0,.81.27.99.81.26-.54.63-.81,1.12-.81.4,0,.7.17.9.5.2.33.3.84.3,1.51v3.37h-1v-3.37c0-.3-.04-.52-.12-.66-.08-.14-.23-.21-.44-.21-.3,0-.5.2-.62.61v3.63s-.99,0-.99,0v-3.36c0-.31-.04-.53-.13-.66s-.23-.21-.43-.21c-.28,0-.49.17-.61.5v3.74h-.99v-5.28h.93Z"/>
      <path class="cls-1" d="M64.03,63.76c-.54,0-.99-.24-1.33-.71s-.51-1.11-.51-1.9v-.14c0-.53.07-1,.22-1.42.14-.42.35-.74.61-.97.26-.23.57-.34.91-.34.51,0,.91.23,1.2.68.29.46.44,1.1.44,1.94v.58h-2.37c.03.34.13.62.29.83.16.21.37.31.61.31.38,0,.68-.2.9-.59l.49.78c-.15.3-.35.53-.6.7-.25.17-.54.25-.85.25ZM63.92,59.42c-.2,0-.36.09-.48.28-.12.19-.2.46-.24.81h1.38v-.11c0-.31-.06-.56-.18-.73-.11-.17-.28-.26-.49-.26Z"/>
      <path class="cls-1" d="M66.48,57.01c0-.21.05-.39.15-.52s.24-.21.41-.21.3.07.41.21c.1.14.15.31.15.52s-.05.39-.15.53c-.1.14-.24.21-.4.21s-.3-.07-.4-.21c-.1-.14-.15-.31-.15-.53ZM67.53,63.66h-1v-5.28h1v5.28Z"/>
      <path class="cls-1" d="M70.72,62.2c0-.17-.06-.31-.18-.41-.12-.1-.31-.19-.58-.27-.88-.26-1.33-.8-1.33-1.6,0-.47.14-.86.41-1.17.27-.31.63-.47,1.07-.47.47,0,.85.16,1.13.47s.42.73.42,1.23h-.99c0-.2-.05-.37-.14-.5-.09-.13-.24-.2-.43-.2-.17,0-.3.05-.39.16-.09.11-.14.24-.14.41,0,.16.05.28.16.38.1.1.28.18.53.25.25.07.46.15.63.24.53.27.79.75.79,1.42,0,.48-.15.87-.44,1.17-.29.3-.67.45-1.13.45-.31,0-.59-.08-.83-.24-.24-.16-.43-.38-.57-.65-.14-.27-.21-.57-.21-.89h.94c0,.25.07.44.2.58.12.13.28.2.49.2.19,0,.33-.05.43-.15.1-.1.15-.24.15-.4Z"/>
      <path class="cls-1" d="M73.86,57.08v1.3h.64v1.04h-.64v2.64c0,.2.03.33.08.42s.15.13.3.13c.11,0,.21-.01.29-.03v1.07c-.19.08-.4.13-.6.13-.7,0-1.05-.5-1.07-1.5v-2.85h-.54v-1.04h.54v-1.3h.99Z"/>
      <path class="cls-1" d="M77.12,63.76c-.54,0-.99-.24-1.33-.71s-.51-1.11-.51-1.9v-.14c0-.53.07-1,.22-1.42.14-.42.35-.74.61-.97.26-.23.57-.34.91-.34.51,0,.91.23,1.2.68.29.46.44,1.1.44,1.94v.58h-2.37c.03.34.13.62.29.83.16.21.37.31.61.31.38,0,.68-.2.9-.59l.49.78c-.15.3-.35.53-.6.7-.25.17-.54.25-.85.25ZM77,59.42c-.2,0-.36.09-.48.28-.12.19-.2.46-.24.81h1.38v-.11c0-.31-.06-.56-.18-.73-.11-.17-.28-.26-.49-.26Z"/>
      <path class="cls-1" d="M81.66,59.7c-.14-.03-.25-.04-.36-.04-.38,0-.62.18-.74.54v3.46h-.99v-5.28h.94l.03.63c.2-.49.48-.73.83-.73.11,0,.21.02.31.06v1.36Z"/>
      <path class="cls-1" d="M84.5,62.2c0-.17-.06-.31-.18-.41-.12-.1-.31-.19-.58-.27-.88-.26-1.33-.8-1.33-1.6,0-.47.14-.86.41-1.17.27-.31.63-.47,1.07-.47.47,0,.85.16,1.13.47s.42.73.42,1.23h-.99c0-.2-.05-.37-.14-.5-.09-.13-.24-.2-.43-.2-.17,0-.3.05-.39.16-.09.11-.14.24-.14.41,0,.16.05.28.16.38.1.1.28.18.53.25.25.07.46.15.63.24.53.27.79.75.79,1.42,0,.48-.15.87-.44,1.17-.29.3-.67.45-1.13.45-.31,0-.59-.08-.83-.24-.24-.16-.43-.38-.57-.65-.14-.27-.21-.57-.21-.89h.94c0,.25.07.44.2.58.12.13.28.2.49.2.19,0,.33-.05.43-.15.1-.1.15-.24.15-.4Z"/>
      <path class="cls-1" d="M88.17,63.76c-.54,0-.99-.24-1.33-.71s-.51-1.11-.51-1.9v-.14c0-.53.07-1,.22-1.42.14-.42.35-.74.61-.97.26-.23.57-.34.91-.34.51,0,.91.23,1.2.68.29.46.44,1.1.44,1.94v.58h-2.37c.03.34.13.62.29.83.16.21.37.31.61.31.38,0,.68-.2.9-.59l.49.78c-.15.3-.35.53-.6.7-.25.17-.54.25-.85.25ZM88.06,59.42c-.2,0-.36.09-.48.28-.12.19-.2.46-.24.81h1.38v-.11c0-.31-.06-.56-.18-.73-.11-.17-.28-.26-.49-.26Z"/>
      <path class="cls-1" d="M92.71,59.7c-.14-.03-.25-.04-.36-.04-.38,0-.62.18-.74.54v3.46h-.99v-5.28h.94l.03.63c.2-.49.48-.73.83-.73.11,0,.21.02.31.06v1.36Z"/>
      <path class="cls-1" d="M94.99,61.94l.69-3.56h1.04l-1.25,5.28h-.95l-1.25-5.28h1.04l.69,3.56Z"/>
      <path class="cls-1" d="M97.5,57.01c0-.21.05-.39.15-.52s.24-.21.41-.21.3.07.41.21c.1.14.15.31.15.52s-.05.39-.15.53c-.1.14-.24.21-.4.21s-.3-.07-.4-.21c-.1-.14-.15-.31-.15-.53ZM98.56,63.66h-1v-5.28h1v5.28Z"/>
      <path class="cls-1" d="M101.28,62.62c.18,0,.33-.07.45-.21s.17-.33.18-.57h.93c0,.36-.07.69-.21.98-.13.3-.32.53-.55.69-.24.16-.5.25-.78.25-.53,0-.95-.24-1.26-.72-.31-.48-.46-1.14-.46-1.99v-.09c0-.81.15-1.46.46-1.95.3-.49.72-.73,1.25-.73.46,0,.84.19,1.12.56.28.38.42.88.43,1.5h-.93c0-.27-.06-.5-.18-.67s-.27-.26-.45-.26c-.23,0-.41.12-.52.36s-.18.63-.18,1.17v.15c0,.54.06.94.18,1.17.12.24.29.36.53.36Z"/>
      <path class="cls-1" d="M105.47,63.76c-.54,0-.99-.24-1.33-.71s-.51-1.11-.51-1.9v-.14c0-.53.07-1,.22-1.42.14-.42.35-.74.61-.97.26-.23.57-.34.91-.34.51,0,.91.23,1.2.68.29.46.44,1.1.44,1.94v.58h-2.37c.03.34.13.62.29.83.16.21.37.31.61.31.38,0,.68-.2.9-.59l.49.78c-.15.3-.35.53-.6.7-.25.17-.54.25-.85.25ZM105.35,59.42c-.2,0-.36.09-.48.28-.12.19-.2.46-.24.81h1.38v-.11c0-.31-.06-.56-.18-.73-.11-.17-.28-.26-.49-.26Z"/>
    </g>
  </g>
</svg>